<svg width="62" height="62" viewBox="0 0 62 62" fill="none" xmlns="http://www.w3.org/2000/svg">
<path d="M31 31C31 49.8212 15.3156 38.8422 7.47346 31M31 31C31 12.1788 15.3156 23.1578 7.47346 31M31 31C49.8212 31 38.8422 15.3156 31 7.47346M31 31C12.1788 31 23.1578 15.3156 31 7.47346M31 31C49.8212 31 38.8422 46.6844 31 54.5265M31 31C12.1788 31 23.1578 46.6844 31 54.5265M31 31C31 49.8212 46.6844 38.8422 54.5265 31M31 31C31 12.1788 46.6844 23.1578 54.5265 31M31 31C15.3156 38.8422 -11.3478 54.5265 7.47346 54.5265M31 31C23.1578 46.6844 7.47346 73.3478 7.47346 54.5265M31 31C38.8422 15.3156 54.5265 -11.3478 54.5265 7.47346M31 31C46.6844 23.1578 73.3478 7.47346 54.5265 7.47346M31 31C23.1578 15.3156 7.47346 -11.3478 7.47346 7.47346M31 31C15.3156 23.1578 -11.3478 7.47346 7.47346 7.47346M31 31C46.6844 38.8422 73.3478 54.5265 54.5265 54.5265M31 31C38.8422 46.6844 54.5265 73.3478 54.5265 54.5265M54.5265 31L7.47346 7.47346M54.5265 31L7.47346 54.5265M31 7.47346L7.47346 54.5265M31 7.47346L54.5265 54.5265M7.47346 31L54.5265 54.5265M7.47346 31L54.5265 7.47346M31 54.5265L7.47346 7.47346M31 54.5265L54.5265 7.47346" stroke="#C6D2DF" stroke-width="2"/>
<path d="M57.7188 29.5938H51.2538L55.15 25.6966C55.2843 25.5668 55.3915 25.4117 55.4652 25.2401C55.5389 25.0685 55.5776 24.884 55.5793 24.6973C55.5809 24.5106 55.5453 24.3254 55.4746 24.1526C55.4039 23.9797 55.2995 23.8227 55.1674 23.6907C55.0354 23.5587 54.8784 23.4542 54.7056 23.3835C54.5327 23.3128 54.3476 23.2772 54.1609 23.2789C53.9741 23.2805 53.7896 23.3193 53.618 23.393C53.4465 23.4667 53.2913 23.5738 53.1616 23.7081L47.2759 29.5938H42.8669L45.2069 27.2556C45.3412 27.1259 45.4483 26.9707 45.522 26.7992C45.5957 26.6276 45.6345 26.4431 45.6361 26.2563C45.6378 26.0696 45.6022 25.8845 45.5315 25.7116C45.4608 25.5388 45.3564 25.3818 45.2243 25.2498C45.0923 25.1177 44.9353 25.0133 44.7624 24.9426C44.5896 24.8719 44.4044 24.8363 44.2177 24.8379C44.031 24.8396 43.8465 24.8783 43.6749 24.952C43.5033 25.0257 43.3482 25.1329 43.2184 25.2672L38.89 29.5938H34.3947L42.8744 21.115H51.1984C51.5714 21.115 51.9291 20.9668 52.1928 20.7031C52.4565 20.4394 52.6047 20.0817 52.6047 19.7087C52.6047 19.3358 52.4565 18.9781 52.1928 18.7144C51.9291 18.4507 51.5714 18.3025 51.1984 18.3025H45.6869L50.8872 13.1012C51.0215 12.9715 51.1286 12.8164 51.2023 12.6448C51.276 12.4732 51.3148 12.2887 51.3165 12.102C51.3181 11.9152 51.2825 11.7301 51.2118 11.5573C51.1411 11.3844 51.0367 11.2274 50.9046 11.0954C50.7726 10.9633 50.6156 10.8589 50.4428 10.7882C50.2699 10.7175 50.0848 10.6819 49.898 10.6836C49.7113 10.6852 49.5268 10.724 49.3552 10.7977C49.1837 10.8714 49.0285 10.9785 48.8988 11.1128L43.6984 16.3141V10.8025C43.6984 10.4295 43.5503 10.0719 43.2866 9.80813C43.0228 9.54441 42.6652 9.39625 42.2922 9.39625C41.9192 9.39625 41.5616 9.54441 41.2978 9.80813C41.0341 10.0719 40.8859 10.4295 40.8859 10.8025V19.1266L32.4063 27.6053V23.11L36.7328 18.7825C36.8671 18.6528 36.9743 18.4976 37.048 18.326C37.1217 18.1545 37.1605 17.9699 37.1621 17.7832C37.1637 17.5965 37.1281 17.4113 37.0574 17.2385C36.9867 17.0657 36.8823 16.9087 36.7503 16.7766C36.6182 16.6446 36.4612 16.5402 36.2884 16.4695C36.1156 16.3988 35.9304 16.3632 35.7437 16.3648C35.5569 16.3664 35.3724 16.4052 35.2008 16.4789C35.0293 16.5526 34.8741 16.6598 34.7444 16.7941L32.4063 19.1331V14.7241L38.2928 8.83844C38.4271 8.70872 38.5343 8.55354 38.608 8.38198C38.6817 8.21041 38.7205 8.02588 38.7221 7.83916C38.7237 7.65244 38.6881 7.46726 38.6174 7.29444C38.5467 7.12162 38.4423 6.96461 38.3103 6.83257C38.1782 6.70053 38.0212 6.59611 37.8484 6.52541C37.6756 6.4547 37.4904 6.41912 37.3037 6.42074C37.1169 6.42236 36.9324 6.46116 36.7608 6.53486C36.5893 6.60856 36.4341 6.71569 36.3044 6.85L32.4063 10.7463V4.28125C32.4063 3.90829 32.2581 3.5506 31.9944 3.28688C31.7307 3.02316 31.373 2.875 31 2.875C30.6271 2.875 30.2694 3.02316 30.0056 3.28688C29.7419 3.5506 29.5938 3.90829 29.5938 4.28125V10.7463L25.6975 6.84906C25.5678 6.71475 25.4126 6.60762 25.241 6.53392C25.0695 6.46022 24.885 6.42143 24.6982 6.4198C24.5115 6.41818 24.3263 6.45376 24.1535 6.52447C23.9807 6.59518 23.8237 6.6996 23.6916 6.83163C23.5596 6.96367 23.4552 7.12068 23.3845 7.2935C23.3138 7.46633 23.2782 7.6515 23.2798 7.83822C23.2814 8.02494 23.3202 8.20947 23.3939 8.38104C23.4676 8.55261 23.5748 8.70778 23.7091 8.8375L29.5938 14.7231V19.1322L27.2556 16.7931C27.1259 16.6588 26.9707 16.5517 26.7992 16.478C26.6276 16.4043 26.4431 16.3655 26.2564 16.3639C26.0696 16.3622 25.8845 16.3978 25.7116 16.4685C25.5388 16.5392 25.3818 16.6437 25.2498 16.7757C25.1177 16.9077 25.0133 17.0647 24.9426 17.2376C24.8719 17.4104 24.8363 17.5956 24.8379 17.7823C24.8396 17.969 24.8784 18.1535 24.9521 18.3251C25.0258 18.4967 25.1329 18.6518 25.2672 18.7816L29.5938 23.1091V27.6044L21.1159 19.1256V10.8016C21.1159 10.4286 20.9678 10.0709 20.7041 9.80719C20.4403 9.54347 20.0827 9.39531 19.7097 9.39531C19.3367 9.39531 18.9791 9.54347 18.7153 9.80719C18.4516 10.0709 18.3034 10.4286 18.3034 10.8016V16.3131L13.1013 11.1119C12.9715 10.9776 12.8164 10.8704 12.6448 10.7967C12.4732 10.723 12.2887 10.6842 12.102 10.6826C11.9153 10.681 11.7301 10.7166 11.5573 10.7873C11.3844 10.858 11.2274 10.9624 11.0954 11.0944C10.9634 11.2265 10.8589 11.3835 10.7882 11.5563C10.7175 11.7291 10.6819 11.9143 10.6836 12.101C10.6852 12.2878 10.724 12.4723 10.7977 12.6439C10.8714 12.8154 10.9785 12.9706 11.1128 13.1003L16.315 18.3016H10.8034C10.4305 18.3016 10.0728 18.4497 9.80908 18.7134C9.54536 18.9772 9.3972 19.3349 9.3972 19.7078C9.3972 20.0808 9.54536 20.4385 9.80908 20.7022C10.0728 20.9659 10.4305 21.1141 10.8034 21.1141H19.1275L27.6053 29.5928H23.11L18.7834 25.2663C18.6537 25.1319 18.4986 25.0248 18.327 24.9511C18.1554 24.8774 17.9709 24.8386 17.7842 24.837C17.5974 24.8354 17.4123 24.8709 17.2395 24.9417C17.0666 25.0124 16.9096 25.1168 16.7776 25.2488C16.6455 25.3809 16.5411 25.5379 16.4704 25.7107C16.3997 25.8835 16.3641 26.0687 16.3658 26.2554C16.3674 26.4421 16.4062 26.6267 16.4799 26.7982C16.5536 26.9698 16.6607 27.125 16.795 27.2547L19.1331 29.5928H14.7241L8.83939 23.7072C8.70966 23.5729 8.55449 23.4657 8.38292 23.392C8.21136 23.3183 8.02683 23.2796 7.84011 23.2779C7.65339 23.2763 7.46821 23.3119 7.29539 23.3826C7.12256 23.4533 6.96555 23.5577 6.83352 23.6898C6.70148 23.8218 6.59706 23.9788 6.52636 24.1516C6.45565 24.3244 6.42007 24.5096 6.42169 24.6963C6.42331 24.8831 6.46211 25.0676 6.53581 25.2392C6.60951 25.4107 6.71664 25.5659 6.85095 25.6956L10.7472 29.5928H4.28126C3.90818 29.5928 3.55037 29.741 3.28656 30.0048C3.02275 30.2686 2.87454 30.6264 2.87454 30.9995C2.87454 31.3726 3.02275 31.7304 3.28656 31.9942C3.55037 32.258 3.90818 32.4062 4.28126 32.4062H10.7463L6.85001 36.3034C6.71945 36.4341 6.61589 36.5891 6.54526 36.7598C6.47462 36.9304 6.43829 37.1133 6.43833 37.298C6.43837 37.4827 6.47479 37.6655 6.54551 37.8362C6.61623 38.0068 6.71986 38.1618 6.85048 38.2923C6.9811 38.4229 7.13617 38.5265 7.30681 38.5971C7.47746 38.6677 7.66034 38.7041 7.84503 38.704C8.02972 38.704 8.21259 38.6676 8.3832 38.5968C8.55381 38.5261 8.70882 38.4225 8.83939 38.2919L14.7241 32.4062H19.1331L16.795 34.7444C16.5313 35.0082 16.3832 35.3659 16.3833 35.7389C16.3834 36.1119 16.5317 36.4696 16.7955 36.7333C17.0593 36.997 17.417 37.1451 17.79 37.145C18.163 37.1449 18.5207 36.9966 18.7844 36.7328L23.1109 32.4062H27.6063L19.1284 40.885H10.8044C10.4314 40.885 10.0737 41.0332 9.81002 41.2969C9.54629 41.5606 9.39814 41.9183 9.39814 42.2912C9.39814 42.6642 9.54629 43.0219 9.81002 43.2856C10.0737 43.5493 10.4314 43.6975 10.8044 43.6975H16.3159L11.1138 48.8988C10.9832 49.0294 10.8796 49.1844 10.809 49.3551C10.7384 49.5257 10.702 49.7086 10.7021 49.8933C10.7022 50.2663 10.8504 50.624 11.1142 50.8877C11.378 51.1513 11.7358 51.2994 12.1088 51.2993C12.4818 51.2992 12.8395 51.151 13.1031 50.8872L18.3053 45.6859V51.1975C18.3053 51.5705 18.4535 51.9281 18.7172 52.1919C18.9809 52.4556 19.3386 52.6037 19.7116 52.6037C20.0845 52.6037 20.4422 52.4556 20.7059 52.1919C20.9697 51.9281 21.1178 51.5705 21.1178 51.1975V42.8734L29.5956 34.3947V38.89L25.2691 43.2175C25.0054 43.4813 24.8573 43.8391 24.8574 44.2121C24.8575 44.585 25.0057 44.9427 25.2695 45.2064C25.5333 45.4701 25.8911 45.6182 26.2641 45.6181C26.6371 45.618 26.9948 45.4697 27.2584 45.2059L29.5966 42.8669V47.2759L23.7119 53.1606C23.5813 53.2912 23.4778 53.4463 23.4071 53.617C23.3365 53.7876 23.3002 53.9705 23.3002 54.1552C23.3002 54.3399 23.3367 54.5227 23.4074 54.6933C23.4781 54.864 23.5817 55.019 23.7124 55.1495C23.843 55.2801 23.998 55.3836 24.1687 55.4543C24.3393 55.5249 24.5222 55.5613 24.7069 55.5612C24.8916 55.5612 25.0745 55.5247 25.2451 55.454C25.4157 55.3833 25.5707 55.2797 25.7013 55.1491L29.5975 51.2528V57.7188C29.5975 58.0917 29.7457 58.4494 30.0094 58.7131C30.2731 58.9768 30.6308 59.125 31.0038 59.125C31.3767 59.125 31.7344 58.9768 31.9981 58.7131C32.2619 58.4494 32.41 58.0917 32.41 57.7188V51.2537L36.3081 55.15C36.5828 55.4247 36.9419 55.5616 37.3028 55.5616C37.5809 55.5615 37.8526 55.479 38.0838 55.3246C38.315 55.1701 38.4952 54.9506 38.6016 54.6937C38.7081 54.4369 38.736 54.1542 38.6819 53.8815C38.6277 53.6088 38.494 53.3583 38.2975 53.1616L32.4063 47.2759V42.8669L34.7444 45.2059C35.0191 45.4806 35.38 45.6175 35.7391 45.6175C36.0171 45.6174 36.2889 45.535 36.5201 45.3805C36.7512 45.226 36.9314 45.0065 37.0379 44.7497C37.1443 44.4928 37.1722 44.2102 37.1181 43.9375C37.064 43.6648 36.9302 43.4142 36.7338 43.2175L32.4063 38.89V34.3947L40.8859 42.8734V51.1975C40.8859 51.5705 41.0341 51.9281 41.2978 52.1919C41.5616 52.4556 41.9192 52.6037 42.2922 52.6037C42.6652 52.6037 43.0228 52.4556 43.2866 52.1919C43.5503 51.9281 43.6984 51.5705 43.6984 51.1975V45.6859L48.8988 50.8872C49.1734 51.1619 49.5344 51.2988 49.8934 51.2988C50.1715 51.2987 50.4433 51.2162 50.6744 51.0618C50.9056 50.9073 51.0858 50.6878 51.1922 50.4309C51.2987 50.1741 51.3266 49.8914 51.2725 49.6187C51.2184 49.346 51.0846 49.0955 50.8881 48.8988L45.6878 43.6975H51.1994C51.5723 43.6975 51.93 43.5493 52.1938 43.2856C52.4575 43.0219 52.6056 42.6642 52.6056 42.2912C52.6056 41.9183 52.4575 41.5606 52.1938 41.2969C51.93 41.0332 51.5723 40.885 51.1994 40.885H42.8753L34.3947 32.4062H38.89L43.2184 36.7328C43.4931 37.0075 43.8522 37.1444 44.2131 37.1444C44.4912 37.1443 44.7629 37.0618 44.9941 36.9074C45.2253 36.7529 45.4055 36.5334 45.5119 36.2765C45.6184 36.0197 45.6463 35.7371 45.5922 35.4644C45.5381 35.1916 45.4043 34.9411 45.2078 34.7444L42.8669 32.4062H47.2759L53.1606 38.2919C53.4353 38.5666 53.7963 38.7034 54.1553 38.7034C54.4334 38.7034 54.7051 38.6209 54.9363 38.4664C55.1675 38.312 55.3477 38.0924 55.4541 37.8356C55.5606 37.5788 55.5885 37.2961 55.5344 37.0234C55.4802 36.7507 55.3465 36.5002 55.15 36.3034L51.2538 32.4062H57.7188C58.0917 32.4062 58.4494 32.2581 58.7131 31.9944C58.9769 31.7306 59.125 31.373 59.125 31C59.125 30.627 58.9769 30.2694 58.7131 30.0056C58.4494 29.7419 58.0917 29.5938 57.7188 29.5938Z" fill="#455A71"/>
</svg>
