<svg width="18" height="18" viewBox="0 0 18 18" fill="none" xmlns="http://www.w3.org/2000/svg">
<path d="M9.00075 1.50146C4.85925 1.50146 1.5015 4.85922 1.5015 9.00071C1.5015 12.7432 4.2435 15.8452 7.82925 16.41V11.169H5.92425V9.00071H7.82925V7.34846C7.82925 5.46746 8.949 4.43021 10.6613 4.43021C11.4818 4.43021 12.3413 4.57646 12.3413 4.57646V6.42071H11.3933C10.4633 6.42071 10.1723 6.99971 10.1723 7.59296V8.99921H12.2505L11.9183 11.1675H10.1723V16.4085C13.758 15.8467 16.5 12.744 16.5 9.00071C16.5 4.85922 13.1423 1.50146 9.00075 1.50146V1.50146Z" fill="#082B4B"/>
</svg>
