<svg width="18" height="18" viewBox="0 0 18 18" fill="none" xmlns="http://www.w3.org/2000/svg">
<path d="M15.7103 6.22872C15.7027 5.66069 15.5964 5.0983 15.396 4.56672C15.2223 4.11833 14.9569 3.71112 14.6169 3.37109C14.2769 3.03106 13.8696 2.76571 13.4213 2.59197C12.8965 2.39499 12.3421 2.28847 11.7818 2.27697C11.0603 2.24472 10.8315 2.23572 9.00001 2.23572C7.16851 2.23572 6.93376 2.23572 6.21751 2.27697C5.65738 2.28856 5.10327 2.39507 4.57876 2.59197C4.1303 2.76558 3.72302 3.0309 3.38298 3.37094C3.04294 3.71098 2.77762 4.11826 2.60401 4.56672C2.40663 5.09107 2.30035 5.6453 2.28976 6.20547C2.25751 6.92772 2.24776 7.15647 2.24776 8.98797C2.24776 10.8195 2.24776 11.0535 2.28976 11.7705C2.30101 12.3315 2.40676 12.885 2.60401 13.4107C2.77792 13.859 3.04343 14.2662 3.38358 14.606C3.72374 14.9459 4.13105 15.2112 4.57951 15.3847C5.10258 15.5896 5.65679 15.7038 6.21826 15.7222C6.94051 15.7545 7.16926 15.7642 9.00076 15.7642C10.8323 15.7642 11.067 15.7642 11.7833 15.7222C12.3436 15.7112 12.898 15.6049 13.4228 15.408C13.871 15.234 14.2781 14.9686 14.6181 14.6286C14.9581 14.2886 15.2236 13.8815 15.3975 13.4332C15.5948 12.9082 15.7005 12.3547 15.7118 11.793C15.744 11.0715 15.7538 10.8427 15.7538 9.01047C15.7523 7.17897 15.7523 6.94647 15.7103 6.22872V6.22872ZM8.99551 12.4515C7.08001 12.4515 5.52826 10.8997 5.52826 8.98422C5.52826 7.06872 7.08001 5.51697 8.99551 5.51697C9.91508 5.51697 10.797 5.88227 11.4472 6.5325C12.0975 7.18274 12.4628 8.06465 12.4628 8.98422C12.4628 9.90379 12.0975 10.7857 11.4472 11.4359C10.797 12.0862 9.91508 12.4515 8.99551 12.4515V12.4515ZM12.6008 6.19722C12.153 6.19722 11.7923 5.83572 11.7923 5.38872C11.7923 5.28259 11.8132 5.17751 11.8538 5.07946C11.8944 4.98142 11.9539 4.89233 12.029 4.81729C12.104 4.74225 12.1931 4.68272 12.2911 4.64211C12.3892 4.6015 12.4943 4.58059 12.6004 4.58059C12.7065 4.58059 12.8116 4.6015 12.9096 4.64211C13.0077 4.68272 13.0968 4.74225 13.1718 4.81729C13.2469 4.89233 13.3064 4.98142 13.347 5.07946C13.3876 5.17751 13.4085 5.28259 13.4085 5.38872C13.4085 5.83572 13.047 6.19722 12.6008 6.19722Z" fill="#082B4B"/>
<path d="M8.99551 11.2366C10.2394 11.2366 11.2478 10.2282 11.2478 8.98431C11.2478 7.74042 10.2394 6.73206 8.99551 6.73206C7.75162 6.73206 6.74326 7.74042 6.74326 8.98431C6.74326 10.2282 7.75162 11.2366 8.99551 11.2366Z" fill="#082B4B"/>
</svg>
