<svg width="18" height="18" viewBox="0 0 18 18" fill="none" xmlns="http://www.w3.org/2000/svg">
<path d="M16.1948 5.40226C16.1093 5.08531 15.9424 4.79626 15.7105 4.56388C15.4787 4.3315 15.19 4.1639 14.8733 4.07776C13.6988 3.75526 9 3.75001 9 3.75001C9 3.75001 4.302 3.74476 3.12675 4.05301C2.8102 4.14312 2.52212 4.31309 2.29018 4.54661C2.05824 4.78012 1.89022 5.06935 1.80225 5.38651C1.4925 6.56101 1.4895 8.99701 1.4895 8.99701C1.4895 8.99701 1.4865 11.445 1.794 12.6075C1.9665 13.2503 2.47275 13.758 3.11625 13.9313C4.30275 14.2538 8.98875 14.259 8.98875 14.259C8.98875 14.259 13.6875 14.2643 14.862 13.9568C15.1789 13.8708 15.4678 13.7035 15.7002 13.4716C15.9327 13.2397 16.1005 12.9512 16.1873 12.6345C16.4978 11.4608 16.5 9.02551 16.5 9.02551C16.5 9.02551 16.515 6.57676 16.1948 5.40226V5.40226ZM7.497 11.2538L7.50075 6.75376L11.406 9.00751L7.497 11.2538V11.2538Z" fill="#082B4B"/>
</svg>
